<?xml version="1.0" encoding="utf-8"?>
<!-- Generator: Adobe Illustrator 19.1.0, SVG Export Plug-In . SVG Version: 6.00 Build 0)  -->
<svg version="1.1" id="Laag_1" xmlns="http://www.w3.org/2000/svg" xmlns:xlink="http://www.w3.org/1999/xlink" x="0px" y="0px"
	 viewBox="-252 495.89 90 160" style="enable-background:new -252 495.89 90 160;" xml:space="preserve">
<path style="fill:#8DC63F;" d="M-204.049,543.63c0,13.183-10.734,23.87-23.975,23.87c-13.241,0-23.961-10.687-23.975-23.87
	c-0.014-13.181,10.564-23.849,23.975-23.87C-214.783,519.74-204.049,530.447-204.049,543.63z"/>
<ellipse style="fill:#8DC63F;" cx="-207" cy="519.76" rx="23.975" ry="23.87"/>
<ellipse style="fill:#8DC63F;" cx="-185.975" cy="543.63" rx="23.975" ry="23.87"/>
<g>
	<path style="fill:#543019;" d="M-234.144,622.759c0-4.449-3.26-7.323-8.305-7.323h-3.239v14.798h3.182
		C-237.348,630.234-234.144,627.37-234.144,622.759z M-236.485,622.835c0,4.314-3.542,5.22-6.514,5.22h-0.347v-10.439h0.347
		C-240.027,617.616-236.485,618.521-236.485,622.835z"/>
	<path style="fill:#543019;" d="M-233.009,630.234l1.632-3.57h6.205l1.632,3.57h2.531l-7.265-15.792l-7.265,15.792H-233.009z
		 M-228.275,619.691l2.115,4.792h-4.23L-228.275,619.691z"/>
	<polygon style="fill:#543019;" points="-216.114,622.134 -209.386,615.436 -212.511,615.436 -218.186,621.209 -218.186,615.436 
		-220.527,615.436 -220.527,630.234 -218.186,630.234 -218.186,624.126 -217.771,623.734 -212.488,630.234 -209.351,630.234 	"/>
	<path style="fill:#543019;" d="M-200.578,619.831c0-3.04-1.865-4.395-6.047-4.395h-2.328v14.798h2.341v-5.969h0.746
		C-202.505,624.265-200.578,622.649-200.578,619.831z M-202.805,619.793c0,1.632-1.051,2.329-3.516,2.329h-0.291v-4.544h0.195
		C-203.885,617.578-202.805,618.241-202.805,619.793z"/>
	<path style="fill:#543019;" d="M-200.787,630.234l1.632-3.57h6.205l1.632,3.57h2.53l-7.264-15.792l-7.265,15.792H-200.787z
		 M-196.053,619.691l2.115,4.792h-4.23L-196.053,619.691z"/>
	<path style="fill:#543019;" d="M-185.964,624.208h0.314l4.212,6.025h2.857l-4.574-6.276c1.92-0.433,3.224-2.093,3.224-4.183
		c0-1.518-0.772-2.912-2.019-3.642c-1.235-0.697-2.72-0.697-3.914-0.697h-2.442v14.798h2.342V624.208z M-182.158,619.85
		c0,1.633-1.051,2.329-3.515,2.329h-0.29v-4.601h0.195C-183.272,617.578-182.158,618.279-182.158,619.85z"/>
	<polygon style="fill:#543019;" points="-175.66,624.126 -175.245,623.734 -169.963,630.234 -166.826,630.234 -173.589,622.134 
		-166.861,615.436 -169.986,615.436 -175.66,621.209 -175.66,615.436 -178.002,615.436 -178.002,630.234 -175.66,630.234 	"/>
</g>
<g>
	<path style="fill:#543019;" d="M-241.02,638.861c0.56-0.554,0.856-1.34,0.856-2.273c0-1.143-0.423-2.046-1.223-2.612
		c-0.84-0.613-1.839-0.613-2.72-0.613h-1.58v11.909h1.012v-5.507h0.157l3.774,5.507h1.18l-3.791-5.51
		C-242.388,639.73-241.585,639.42-241.02,638.861z M-244.675,634.335l0.513,0c0.612-0.003,1.303-0.005,1.839,0.251
		c0.844,0.377,1.145,1.265,1.145,1.971c0,0.706-0.278,1.336-0.766,1.731c-0.535,0.468-1.192,0.506-1.934,0.506h-0.798V634.335z"/>
	<path style="fill:#543019;" d="M-233.065,633.21c-3.326,0-6.136,2.798-6.136,6.109c0,3.311,2.81,6.109,6.136,6.109
		c3.326,0,6.136-2.798,6.136-6.109C-226.928,636.007-229.738,633.21-233.065,633.21z M-233.065,644.455
		c-2.777,0-5.123-2.352-5.123-5.137c0-2.785,2.346-5.137,5.123-5.137c2.777,0,5.124,2.352,5.124,5.137
		C-227.941,642.103-230.287,644.455-233.065,644.455z"/>
	<polygon style="fill:#543019;" points="-227.484,633.364 -227.484,634.335 -224.493,634.335 -224.493,645.273 -223.48,645.273 
		-223.48,634.335 -217.975,634.335 -217.975,645.273 -216.963,645.273 -216.963,634.335 -213.971,634.335 -213.971,633.364 	"/>
	<polygon style="fill:#543019;" points="-212.915,645.273 -207.116,645.273 -207.116,644.301 -211.902,644.301 -211.902,639.257 
		-207.238,639.257 -207.238,638.285 -211.902,638.285 -211.902,634.335 -207.116,634.335 -207.116,633.364 -212.915,633.364 	"/>
	<path style="fill:#543019;" d="M-200.856,638.861c0.56-0.554,0.856-1.34,0.856-2.273c0-1.143-0.423-2.046-1.223-2.612
		c-0.84-0.613-1.838-0.613-2.719-0.613h-1.58v11.909h1.013v-5.507h0.157l3.774,5.507h1.179l-3.79-5.51
		C-202.224,639.73-201.42,639.42-200.856,638.861z M-204.51,634.335l0.513,0c0.61-0.004,1.303-0.005,1.839,0.251
		c0.844,0.377,1.145,1.265,1.145,1.971c0,0.706-0.278,1.336-0.766,1.731c-0.535,0.468-1.192,0.506-1.934,0.506h-0.798V634.335z"/>
	<path style="fill:#543019;" d="M-191.809,634.866c-1.337-1.247-2.722-1.503-4.389-1.503h-2.224v11.909h2.224
		c1.465,0,3.018-0.192,4.452-1.582c1.175-1.135,1.822-2.683,1.822-4.358C-189.924,637.597-190.593,636.011-191.809,634.866z
		 M-197.409,634.335h1.196c1.63,0,2.688,0.356,3.649,1.229c1.05,0.967,1.628,2.305,1.628,3.769c0,1.356-0.53,2.636-1.493,3.603
		c-0.963,0.956-2.095,1.364-3.784,1.364h-1.196V634.335z"/>
	<path style="fill:#543019;" d="M-169.438,632.641l-4.307,10.688l-4.292-10.689l-2.505,12.114l-4.828-12.007l-5.053,12.526h1.051
		l1.549-3.826h4.892l1.549,3.826h1.722l1.92-9.337l3.996,9.954l4.012-9.955l1.919,9.338h0.988L-169.438,632.641z M-183.32,640.475
		h-4.116l2.065-5.106L-183.32,640.475z"/>
</g>
<path style="fill:#4DB848;" d="M-204.051,543.451c11.792-1.44,20.935-11.403,21.025-23.511c-0.966-0.118-1.95-0.18-2.949-0.18
	c-9.062,0-16.949,5.005-21.025,12.391c-4.077-7.385-11.963-12.391-21.025-12.391c-0.998,0-1.984,0.073-2.95,0.179
	c-0.02,11.713,9.235,22.072,21.026,23.511c0,0.06-0.002,0.12-0.002,0.18c0,4.161,1.071,8.073,2.951,11.48
	c1.88-3.406,2.951-7.318,2.951-11.48C-204.049,543.57-204.051,543.511-204.051,543.451z"/>
<path style="fill:#0B9444;" d="M-207,543.63c0.998,0,1.982-0.062,2.948-0.18c-0.03-4.094-1.095-7.943-2.948-11.3
	c-1.853,3.357-2.917,7.206-2.948,11.3C-208.982,543.569-207.998,543.63-207,543.63z"/>
<path style="fill:#543019;" d="M-176.455,576.772h-9.472v10.834l-13.596-4.927v-19.353c-3.092-2.113-5.662-4.928-7.477-8.215
	c-1.803,3.267-4.352,6.067-7.419,8.175v19.451l-31.641,11.466l5.094,13.935l34.073-12.348l34.074,12.348l5.095-13.935l-8.731-3.164
	V576.772z"/>
</svg>
